<svg id="svg" version="1.1" xmlns="http://www.w3.org/2000/svg" xmlns:xlink="http://www.w3.org/1999/xlink" width="50" height="30.9761904761905" viewBox="0, 0, 400,377.9761904761905"><g id="svgg"><path id="path0" d="M10.208 33.270 L 10.208 57.467 48.708 57.467 C 69.883 57.467,87.315 57.573,87.445 57.703 C 87.574 57.833,86.792 58.981,85.706 60.255 C 84.621 61.529,83.309 63.069,82.792 63.677 C 82.275 64.285,81.087 65.659,80.151 66.730 C 79.216 67.801,78.040 69.174,77.539 69.783 C 77.039 70.391,76.018 71.572,75.271 72.406 C 74.524 73.241,73.062 74.933,72.023 76.166 C 70.983 77.399,69.367 79.274,68.431 80.333 C 67.495 81.391,65.879 83.253,64.839 84.471 C 63.800 85.688,62.117 87.638,61.099 88.805 C 60.082 89.972,58.805 91.437,58.262 92.060 C 56.053 94.594,45.858 106.429,44.802 107.685 C 44.178 108.427,42.464 110.403,40.994 112.078 C 39.524 113.753,37.908 115.626,37.403 116.241 C 36.897 116.856,35.712 118.217,34.768 119.266 C 33.824 120.314,31.527 122.948,29.664 125.118 C 27.800 127.288,25.085 130.444,23.629 132.131 C 22.174 133.817,18.942 137.571,16.448 140.472 C 13.955 143.373,11.530 146.170,11.061 146.688 L 10.208 147.629 10.208 180.809 C 10.208 199.058,10.269 213.989,10.343 213.989 C 10.417 213.989,11.147 213.095,11.966 212.004 C 13.915 209.407,30.392 187.790,35.957 180.529 C 38.348 177.410,42.757 171.626,45.754 167.675 C 48.752 163.724,51.890 159.624,52.729 158.564 C 53.567 157.503,55.147 155.462,56.238 154.027 C 59.788 149.362,70.107 135.855,71.078 134.604 C 71.597 133.934,73.214 131.815,74.669 129.896 C 79.438 123.606,95.077 103.095,97.566 99.866 C 100.666 95.844,105.592 89.403,110.910 82.420 C 113.206 79.405,116.004 75.747,117.128 74.291 C 120.153 70.373,132.936 53.647,135.443 50.326 C 136.639 48.743,137.830 47.189,138.090 46.874 C 138.350 46.558,139.659 44.856,140.997 43.093 C 142.336 41.329,147.185 34.975,151.772 28.973 C 162.829 14.506,166.730 9.349,166.730 9.198 C 166.730 9.130,131.512 9.074,88.469 9.074 L 10.208 9.074 10.208 33.270 M237.051 185.821 L 237.051 360.699 288.563 360.591 C 328.426 360.507,340.589 360.374,342.344 360.002 C 347.713 358.866,350.106 358.256,353.308 357.208 C 368.622 352.199,381.903 338.786,386.367 323.819 C 388.818 315.602,388.655 325.248,388.655 188.658 C 388.655 58.331,388.696 61.962,387.160 56.333 C 385.829 51.453,384.975 48.953,383.692 46.182 C 382.888 44.446,382.231 42.955,382.231 42.870 C 382.231 42.401,376.574 33.628,375.797 32.892 C 375.687 32.788,374.751 31.697,373.716 30.466 C 367.629 23.231,357.523 16.585,347.637 13.315 C 340.645 11.003,345.053 11.172,288.563 11.052 L 237.051 10.943 237.051 185.821 M164.006 55.394 C 160.426 60.191,157.026 64.635,153.497 69.130 C 152.561 70.321,151.200 72.101,150.473 73.085 C 149.745 74.069,148.384 75.862,147.448 77.069 C 146.512 78.277,144.811 80.493,143.667 81.995 C 142.524 83.496,140.640 85.950,139.481 87.447 C 136.224 91.655,130.799 98.729,126.545 104.312 C 124.422 107.100,122.345 109.822,121.931 110.362 C 116.247 117.763,109.406 126.712,107.599 129.112 C 106.347 130.775,105.194 132.306,105.037 132.514 C 104.880 132.722,104.265 133.488,103.670 134.216 C 102.524 135.616,96.728 143.209,93.600 147.405 C 92.575 148.780,91.554 150.111,91.331 150.362 C 91.109 150.614,90.331 151.611,89.603 152.579 C 88.875 153.546,87.590 155.212,86.747 156.280 C 85.905 157.349,83.612 160.350,81.652 162.949 C 79.693 165.548,77.999 167.760,77.889 167.864 C 77.779 167.968,76.592 169.499,75.250 171.267 C 71.650 176.009,59.819 191.491,57.626 194.329 C 55.865 196.607,47.437 207.653,46.808 208.507 C 46.654 208.715,46.050 209.480,45.465 210.208 C 44.880 210.936,43.641 212.552,42.712 213.800 C 41.783 215.047,40.935 216.153,40.828 216.257 C 40.720 216.361,39.278 218.233,37.623 220.416 C 34.102 225.060,34.464 224.586,32.416 227.221 C 31.528 228.365,30.037 230.317,29.105 231.560 C 28.173 232.803,27.200 234.079,26.943 234.396 C 26.501 234.941,18.998 244.717,17.260 247.011 C 16.812 247.602,15.763 248.963,14.928 250.035 C 14.092 251.108,12.689 252.936,11.808 254.099 L 10.208 256.214 10.208 289.787 L 10.208 323.360 12.022 320.943 C 14.230 318.002,19.532 311.036,21.920 307.940 C 22.882 306.692,26.637 301.769,30.265 297.000 C 33.894 292.231,38.230 286.532,39.902 284.335 C 41.573 282.138,44.362 278.469,46.098 276.181 C 47.834 273.894,49.658 271.512,50.152 270.888 C 50.647 270.265,51.182 269.584,51.343 269.376 C 52.744 267.559,72.985 240.930,75.159 238.044 C 76.705 235.991,78.204 234.034,78.489 233.696 C 78.774 233.358,80.839 230.672,83.077 227.728 C 85.315 224.783,91.909 216.119,97.732 208.475 C 103.554 200.830,109.524 192.991,110.998 191.055 C 112.472 189.118,114.088 187.002,114.590 186.351 C 115.684 184.932,139.983 153.017,141.150 151.468 C 141.599 150.872,142.399 149.851,142.928 149.200 C 143.458 148.548,145.197 146.276,146.793 144.151 C 148.390 142.026,151.031 138.539,152.664 136.401 C 154.297 134.263,158.130 129.231,161.183 125.218 L 166.734 117.922 166.637 84.960 L 166.541 51.999 164.006 55.394 M334.486 57.711 C 337.711 59.112,338.679 59.621,341.142 61.205 C 344.003 63.045,346.149 65.633,347.292 68.620 C 347.999 70.467,348.015 73.254,348.015 190.926 L 348.015 311.342 346.894 313.367 C 345.598 315.707,343.083 318.064,340.643 319.227 C 338.951 320.033,338.783 320.038,311.153 320.038 L 283.365 320.038 283.270 188.563 L 283.175 57.089 308.115 57.089 C 330.429 57.089,333.206 57.154,334.486 57.711 M165.028 174.738 C 163.809 176.294,158.218 183.160,155.074 186.964 C 154.726 187.384,152.666 189.936,150.496 192.635 C 148.325 195.334,146.454 197.628,146.336 197.732 C 146.219 197.836,145.103 199.192,143.855 200.747 C 141.087 204.197,140.722 204.645,138.885 206.853 C 138.084 207.815,137.004 209.152,136.484 209.825 C 135.368 211.268,133.280 213.867,132.379 214.934 C 132.028 215.350,129.958 217.898,127.780 220.597 C 125.601 223.297,123.533 225.849,123.185 226.269 C 122.836 226.689,121.165 228.733,119.471 230.813 C 117.777 232.892,116.105 234.934,115.756 235.350 C 115.407 235.766,113.692 237.892,111.944 240.076 C 110.197 242.259,107.985 244.978,107.030 246.119 C 106.075 247.259,105.165 248.365,105.008 248.576 C 104.851 248.787,103.405 250.578,101.794 252.555 C 100.184 254.533,97.505 257.849,95.841 259.926 C 92.425 264.191,92.180 264.490,89.981 267.108 C 87.814 269.687,87.906 269.574,81.210 277.887 C 77.945 281.939,73.607 287.306,71.569 289.814 C 69.531 292.321,67.184 295.213,66.352 296.241 C 65.521 297.269,63.905 299.237,62.761 300.615 C 61.617 301.993,59.830 304.185,58.790 305.485 C 57.750 306.786,56.729 308.041,56.520 308.273 C 56.311 308.506,54.780 310.397,53.117 312.476 C 51.455 314.556,50.009 316.342,49.905 316.446 C 49.667 316.684,46.080 321.112,41.941 326.276 C 40.191 328.459,38.672 330.331,38.566 330.435 C 38.459 330.539,37.353 331.900,36.106 333.459 C 34.859 335.019,33.743 336.380,33.626 336.484 C 33.509 336.588,31.637 338.881,29.466 341.580 C 24.727 347.474,24.656 347.561,22.817 349.740 C 22.016 350.688,20.828 352.134,20.175 352.953 C 19.523 353.772,17.567 356.202,15.828 358.352 C 14.088 360.502,12.096 363.012,11.400 363.928 L 10.135 365.595 91.460 365.595 L 172.785 365.595 172.688 344.707 L 172.590 323.819 133.932 323.819 C 99.791 323.819,95.274 323.752,95.274 323.250 C 95.274 322.938,97.113 320.386,99.359 317.579 C 103.444 312.478,113.627 299.710,136.297 271.267 C 142.926 262.949,152.486 250.965,157.540 244.636 L 166.730 233.129 166.730 202.954 C 166.730 186.358,166.687 172.786,166.635 172.794 C 166.583 172.802,165.860 173.677,165.028 174.738 " stroke="none" fill="#040404" fill-rule="evenodd"></path><path id="path1" d="M0.000 189.036 L 0.000 378.072 200.000 378.072 L 400.000 378.072 400.000 189.036 L 400.000 0.000 200.000 0.000 L 0.000 0.000 0.000 189.036 M166.923 9.080 C 167.104 9.374,159.887 19.457,158.809 20.416 C 158.692 20.520,157.500 22.051,156.160 23.819 C 154.820 25.586,150.228 31.609,145.955 37.203 C 141.681 42.796,136.952 49.006,135.444 51.002 C 133.936 52.998,132.457 54.920,132.157 55.272 C 131.857 55.625,130.114 57.922,128.284 60.376 C 126.454 62.831,124.860 64.924,124.741 65.028 C 124.623 65.132,123.187 67.004,121.550 69.187 C 119.913 71.371,118.478 73.242,118.361 73.346 C 118.243 73.450,116.622 75.577,114.757 78.072 C 112.893 80.567,111.266 82.694,111.142 82.798 C 111.019 82.902,106.598 88.686,101.319 95.652 C 96.040 102.618,91.626 108.403,91.510 108.507 C 91.395 108.611,90.203 110.142,88.863 111.909 C 87.523 113.677,82.675 120.035,78.091 126.038 C 73.506 132.041,68.563 138.525,67.108 140.446 C 59.181 150.910,51.248 161.271,51.038 161.437 C 50.905 161.541,49.078 163.922,46.977 166.730 C 43.859 170.897,27.837 191.903,24.197 196.599 C 23.677 197.269,20.644 201.244,17.457 205.431 C 10.464 214.618,10.282 214.835,9.819 214.549 C 9.586 214.405,9.452 202.178,9.452 181.103 L 9.452 147.884 10.475 146.626 C 11.037 145.935,12.100 144.684,12.837 143.846 C 13.575 143.009,15.113 141.227,16.257 139.887 C 17.401 138.546,18.948 136.764,19.694 135.927 C 20.441 135.090,21.462 133.914,21.963 133.315 C 22.464 132.715,23.043 132.034,23.251 131.802 C 23.459 131.569,24.735 130.103,26.087 128.544 C 27.438 126.985,28.635 125.624,28.746 125.520 C 28.857 125.416,29.323 124.843,29.781 124.247 C 30.465 123.356,34.242 119.025,35.732 117.424 C 35.942 117.198,38.575 114.121,41.584 110.586 C 44.593 107.051,47.154 104.074,47.277 103.970 C 47.399 103.866,50.205 100.633,53.511 96.786 C 56.817 92.940,59.697 89.602,59.912 89.370 C 60.127 89.137,60.723 88.457,61.237 87.857 C 61.750 87.258,63.701 84.981,65.571 82.798 C 67.441 80.614,69.147 78.642,69.363 78.415 C 69.578 78.188,72.221 75.140,75.236 71.642 C 78.251 68.145,82.138 63.652,83.872 61.658 L 87.026 58.034 48.333 57.845 L 9.641 57.656 9.543 33.483 C 9.467 14.396,9.546 9.247,9.922 9.009 C 10.654 8.544,166.635 8.615,166.923 9.080 M340.235 11.163 C 349.025 12.728,360.741 17.900,365.854 22.473 C 366.101 22.693,367.466 23.894,368.888 25.142 C 379.365 34.331,386.869 48.193,388.620 61.591 C 389.305 66.826,389.175 311.743,388.485 316.446 C 387.017 326.460,383.357 334.086,375.621 343.247 C 371.565 348.049,357.532 357.278,354.286 357.278 C 354.054 357.278,353.570 357.432,353.208 357.620 C 351.832 358.338,345.081 359.883,339.974 360.647 C 338.099 360.928,321.250 361.059,286.950 361.059 L 236.673 361.059 236.673 185.822 L 236.673 10.586 286.833 10.586 C 330.146 10.586,337.435 10.665,340.235 11.163 M167.393 84.499 C 167.480 113.823,167.427 117.425,166.896 118.236 C 166.248 119.224,145.295 146.839,143.153 149.527 C 142.656 150.151,140.900 152.448,139.251 154.631 C 136.501 158.273,129.201 167.855,118.943 181.285 C 116.720 184.197,113.223 188.790,111.173 191.493 C 106.944 197.068,104.017 200.909,88.847 220.789 C 75.807 237.878,72.442 242.295,67.931 248.242 C 56.079 263.866,42.924 281.124,42.743 281.285 C 42.626 281.389,41.003 283.516,39.136 286.011 C 37.269 288.507,35.648 290.633,35.533 290.737 C 35.418 290.841,33.799 292.968,31.935 295.463 C 30.070 297.958,28.450 300.085,28.335 300.189 C 28.220 300.293,24.157 305.610,19.306 312.004 C 14.455 318.398,10.253 323.629,9.969 323.629 C 9.535 323.629,9.452 318.186,9.452 289.941 L 9.452 256.252 10.671 254.686 C 11.341 253.824,11.982 253.034,12.096 252.930 C 12.209 252.826,13.829 250.699,15.696 248.204 C 17.563 245.709,19.376 243.327,19.726 242.911 C 20.075 242.495,22.759 239.008,25.690 235.161 C 28.620 231.314,31.422 227.656,31.916 227.032 C 32.851 225.852,42.155 213.696,47.397 206.805 C 50.242 203.066,56.021 195.523,61.589 188.280 C 62.948 186.512,66.779 181.493,70.102 177.127 C 73.425 172.760,76.248 169.102,76.375 168.998 C 76.503 168.894,77.626 167.448,78.871 165.784 C 80.117 164.121,83.083 160.224,85.464 157.125 C 87.844 154.026,90.983 149.931,92.439 148.025 C 93.894 146.120,98.062 140.680,101.701 135.936 C 105.340 131.192,109.688 125.504,111.364 123.296 C 115.041 118.451,125.942 104.231,127.194 102.647 C 127.687 102.023,130.745 98.025,133.990 93.762 C 137.235 89.499,140.106 85.756,140.370 85.444 C 140.634 85.132,141.938 83.431,143.267 81.664 C 144.595 79.896,147.390 76.238,149.478 73.535 C 153.869 67.849,156.622 64.251,162.314 56.758 C 164.565 53.796,166.606 51.440,166.851 51.521 C 167.188 51.633,167.320 59.707,167.393 84.499 M283.648 188.553 L 283.743 319.660 310.019 319.771 C 339.984 319.898,339.439 319.940,342.789 317.241 C 345.623 314.958,347.016 312.680,347.462 309.600 C 347.889 306.644,347.910 77.173,347.483 72.713 C 346.863 66.238,343.946 62.721,335.917 58.772 L 333.648 57.656 308.601 57.551 L 283.553 57.446 283.648 188.553 M167.297 202.841 L 167.297 233.081 157.495 245.369 C 143.133 263.374,140.523 266.639,139.820 267.482 C 139.471 267.900,134.992 273.516,129.866 279.962 C 124.740 286.408,120.065 292.278,119.478 293.006 C 118.890 293.733,114.208 299.603,109.072 306.049 C 103.937 312.495,99.199 318.442,98.544 319.263 C 97.889 320.085,96.868 321.318,96.275 322.004 L 95.196 323.251 133.912 323.251 C 157.848 323.251,172.765 323.388,172.987 323.610 C 173.207 323.831,173.307 331.998,173.245 344.782 L 173.144 365.595 91.487 365.595 C 42.212 365.595,9.830 365.458,9.830 365.249 C 9.830 365.058,10.723 363.810,11.815 362.475 C 12.906 361.140,14.395 359.305,15.123 358.398 C 15.851 357.490,16.890 356.229,17.433 355.595 C 17.975 354.961,19.918 352.571,21.750 350.284 C 25.810 345.214,27.803 342.764,29.298 341.007 C 29.923 340.272,31.030 338.921,31.758 338.004 C 33.254 336.120,40.442 327.245,45.103 321.526 C 46.809 319.434,48.744 317.052,49.403 316.233 C 50.063 315.415,51.988 313.043,53.682 310.964 C 55.375 308.885,59.040 304.376,61.826 300.945 C 64.612 297.514,68.279 293.006,69.975 290.926 C 71.671 288.847,74.431 285.444,76.109 283.365 C 77.786 281.285,80.613 277.798,82.391 275.614 C 84.170 273.431,85.829 271.389,86.080 271.078 C 86.331 270.766,88.688 267.873,91.319 264.650 C 93.949 261.427,98.160 256.238,100.676 253.119 C 106.899 245.406,108.285 243.699,108.510 243.478 C 108.615 243.374,110.476 241.078,112.645 238.374 C 114.814 235.671,116.684 233.374,116.802 233.270 C 116.919 233.166,118.035 231.808,119.283 230.251 C 120.530 228.695,123.767 224.697,126.476 221.367 C 131.043 215.753,134.902 211.006,139.850 204.915 C 140.948 203.563,143.145 200.841,144.732 198.866 C 146.320 196.890,147.708 195.189,147.818 195.085 C 147.927 194.981,149.034 193.620,150.278 192.060 C 151.522 190.501,152.833 188.885,153.192 188.469 C 154.036 187.492,162.247 177.365,164.461 174.571 C 167.491 170.747,167.297 168.810,167.297 202.841 " stroke="none" fill="#fbfbfb" fill-rule="evenodd"></path><path id="path2" d="M9.924 8.946 C 9.392 9.161,9.205 57.270,9.735 57.598 C 9.891 57.694,10.019 46.858,10.019 33.518 L 10.019 9.263 88.469 9.072 L 166.919 8.882 88.658 8.819 C 45.614 8.784,10.184 8.841,9.924 8.946 M236.767 185.728 L 236.673 361.059 286.862 360.965 L 337.051 360.872 287.051 360.775 L 237.052 360.678 236.957 185.537 L 236.861 10.397 236.767 185.728 M163.516 55.198 C 161.941 57.278,160.738 58.979,160.842 58.979 C 160.946 58.979,162.319 57.278,163.894 55.198 C 165.469 53.119,166.672 51.418,166.568 51.418 C 166.464 51.418,165.091 53.119,163.516 55.198 M290.548 57.362 C 307.673 57.619,333.346 57.629,332.951 57.378 C 332.711 57.225,321.541 57.136,308.129 57.180 C 294.716 57.224,286.805 57.306,290.548 57.362 M334.972 58.412 C 335.491 58.709,336.087 58.952,336.295 58.952 C 336.503 58.952,336.248 58.709,335.728 58.412 C 335.208 58.115,334.612 57.872,334.405 57.872 C 334.197 57.872,334.452 58.115,334.972 58.412 M83.340 62.287 C 81.924 63.899,80.341 65.685,79.821 66.257 C 79.301 66.829,78.980 67.297,79.109 67.297 C 79.237 67.297,80.897 65.510,82.798 63.327 C 84.698 61.144,86.177 59.357,86.084 59.357 C 85.991 59.357,84.756 60.676,83.340 62.287 M158.563 61.720 C 158.158 62.188,157.249 63.336,156.543 64.272 C 155.838 65.208,155.098 66.186,154.900 66.446 C 154.701 66.706,154.623 66.919,154.727 66.919 C 154.830 66.919,155.968 65.558,157.255 63.894 C 159.468 61.033,160.172 59.863,158.563 61.720 M343.671 63.853 C 344.441 64.662,345.521 66.227,346.070 67.330 C 346.620 68.433,347.070 69.125,347.070 68.868 C 347.070 67.647,343.411 62.382,342.562 62.382 C 342.403 62.382,342.902 63.044,343.671 63.853 M77.670 68.904 L 76.560 70.132 77.788 69.022 C 78.934 67.987,79.191 67.675,78.899 67.675 C 78.834 67.675,78.281 68.228,77.670 68.904 M151.575 70.771 C 150.258 72.473,149.377 73.745,149.618 73.596 C 149.859 73.447,150.854 72.266,151.828 70.972 C 152.802 69.679,153.767 68.407,153.973 68.147 C 154.178 67.888,154.261 67.675,154.158 67.675 C 154.054 67.675,152.892 69.068,151.575 70.771 M73.889 73.251 C 69.653 78.072,69.347 78.443,70.059 77.899 C 70.807 77.327,76.873 70.321,76.620 70.321 C 76.534 70.321,75.305 71.640,73.889 73.251 M347.637 190.698 C 347.637 256.801,347.755 310.222,347.899 309.412 C 348.231 307.546,348.215 75.395,347.883 72.590 C 347.748 71.446,347.637 124.595,347.637 190.698 M146.063 77.977 C 143.082 81.822,142.105 83.176,142.311 83.176 C 142.418 83.176,143.794 81.474,145.369 79.395 C 146.943 77.316,148.156 75.614,148.063 75.614 C 147.971 75.614,147.071 76.678,146.063 77.977 M68.607 79.203 C 68.406 79.494,66.911 81.272,65.285 83.155 C 63.659 85.038,62.416 86.578,62.523 86.578 C 62.842 86.578,69.302 79.006,69.130 78.833 C 69.043 78.746,68.807 78.913,68.607 79.203 M138.608 87.603 C 137.594 88.969,136.951 89.970,137.181 89.828 C 137.804 89.443,141.114 85.062,140.759 85.092 C 140.591 85.107,139.623 86.236,138.608 87.603 M60.711 88.386 L 59.985 89.414 60.994 88.497 C 62.055 87.534,62.186 87.327,61.720 87.346 C 61.564 87.353,61.110 87.821,60.711 88.386 M57.089 92.547 C 55.737 94.135,54.825 95.315,55.062 95.169 C 55.761 94.738,60.221 89.600,59.869 89.632 C 59.691 89.647,58.440 90.959,57.089 92.547 M135.515 91.747 C 134.933 92.511,134.649 93.016,134.885 92.870 C 135.369 92.571,137.006 90.359,136.744 90.359 C 136.650 90.359,136.097 90.984,135.515 91.747 M131.947 96.408 C 130.681 98.072,129.730 99.433,129.834 99.433 C 129.938 99.433,131.059 98.072,132.325 96.408 C 133.591 94.745,134.542 93.384,134.439 93.384 C 134.335 93.384,133.213 94.745,131.947 96.408 M51.250 99.387 C 49.471 101.442,48.015 103.227,48.015 103.355 C 48.015 103.483,49.148 102.270,50.532 100.660 C 51.917 99.049,53.480 97.264,54.006 96.692 C 54.532 96.120,54.854 95.652,54.723 95.652 C 54.591 95.652,53.028 97.333,51.250 99.387 M124.998 105.372 C 123.983 106.738,123.341 107.740,123.571 107.598 C 124.194 107.213,127.504 102.831,127.149 102.862 C 126.981 102.876,126.013 104.006,124.998 105.372 M43.735 108.064 C 41.901 110.283,41.136 111.320,42.034 110.369 C 44.844 107.394,47.726 103.968,47.391 104.000 C 47.214 104.017,45.569 105.846,43.735 108.064 M121.904 109.517 C 121.322 110.280,121.039 110.785,121.275 110.639 C 121.759 110.340,123.396 108.129,123.133 108.129 C 123.040 108.129,122.487 108.753,121.904 109.517 M118.897 113.516 C 117.933 114.816,117.680 115.284,118.335 114.556 C 119.784 112.946,121.104 111.153,120.842 111.153 C 120.736 111.153,119.861 112.216,118.897 113.516 M38.185 114.556 C 37.104 115.803,36.305 116.824,36.409 116.824 C 36.513 116.824,37.482 115.803,38.563 114.556 C 39.644 113.308,40.443 112.287,40.339 112.287 C 40.235 112.287,39.266 113.308,38.185 114.556 M115.084 118.424 C 112.375 121.871,109.995 125.142,110.195 125.142 C 110.336 125.142,114.682 119.575,116.751 116.744 C 117.975 115.070,116.752 116.302,115.084 118.424 M34.026 119.282 C 33.538 119.802,33.296 120.221,33.488 120.215 C 33.811 120.204,35.369 118.336,35.055 118.336 C 34.978 118.336,34.515 118.762,34.026 119.282 M32.136 121.349 C 31.824 121.743,31.002 122.757,30.308 123.604 C 28.384 125.952,29.121 125.435,31.349 122.873 C 32.434 121.626,33.183 120.611,33.013 120.619 C 32.842 120.627,32.448 120.955,32.136 121.349 M107.878 127.883 C 106.565 129.352,103.423 133.608,103.843 133.349 C 104.258 133.092,108.976 127.032,108.760 127.032 C 108.693 127.032,108.296 127.415,107.878 127.883 M24.740 130.151 L 23.629 131.380 24.858 130.270 C 25.534 129.659,26.087 129.106,26.087 129.041 C 26.087 128.749,25.775 129.006,24.740 130.151 M22.526 132.621 L 21.800 133.648 22.809 132.732 C 23.870 131.769,24.001 131.561,23.535 131.581 C 23.379 131.587,22.925 132.055,22.526 132.621 M18.526 137.240 C 17.445 138.488,16.645 139.509,16.749 139.509 C 16.853 139.509,17.823 138.488,18.904 137.240 C 19.984 135.992,20.784 134.972,20.680 134.972 C 20.576 134.972,19.606 135.992,18.526 137.240 M99.811 138.374 C 98.545 140.038,97.594 141.399,97.698 141.399 C 97.802 141.399,98.923 140.038,100.189 138.374 C 101.455 136.711,102.406 135.350,102.302 135.350 C 102.198 135.350,101.077 136.711,99.811 138.374 M14.745 141.573 C 14.017 142.451,12.528 144.226,11.437 145.517 L 9.452 147.865 9.452 181.094 C 9.452 199.369,9.579 214.401,9.735 214.497 C 9.891 214.594,9.974 199.643,9.918 181.272 L 9.818 147.872 13.079 144.047 C 14.873 141.943,16.279 140.167,16.204 140.100 C 16.129 140.033,15.473 140.696,14.745 141.573 M95.578 143.951 C 95.265 144.315,94.106 145.803,93.004 147.259 C 91.902 148.715,90.835 150.118,90.633 150.378 C 90.432 150.638,90.354 150.851,90.461 150.851 C 90.569 150.851,91.960 149.149,93.554 147.070 C 96.119 143.724,97.176 142.094,95.578 143.951 M87.895 153.970 C 86.931 155.269,86.678 155.737,87.333 155.009 C 88.782 153.400,90.103 151.607,89.840 151.607 C 89.734 151.607,88.859 152.670,87.895 153.970 M84.853 157.910 C 84.271 158.673,83.988 159.178,84.224 159.032 C 84.708 158.733,86.345 156.522,86.082 156.522 C 85.989 156.522,85.436 157.146,84.853 157.910 M81.641 162.098 C 80.551 163.502,79.494 164.863,79.292 165.123 C 79.090 165.383,79.023 165.595,79.143 165.595 C 79.263 165.595,80.397 164.234,81.664 162.571 C 82.930 160.907,83.889 159.546,83.794 159.546 C 83.700 159.546,82.731 160.695,81.641 162.098 M74.338 171.523 C 73.323 172.895,72.681 173.901,72.910 173.760 C 73.542 173.369,76.838 168.996,76.487 169.014 C 76.319 169.022,75.352 170.151,74.338 171.523 M162.571 176.938 C 160.887 179.017,159.587 180.718,159.683 180.718 C 159.778 180.718,161.004 179.315,162.407 177.599 C 163.810 175.884,165.213 174.182,165.524 173.819 C 165.836 173.455,165.988 173.157,165.862 173.157 C 165.736 173.157,164.255 174.858,162.571 176.938 M69.395 178.072 C 67.801 180.151,66.579 181.853,66.680 181.853 C 66.781 181.853,68.004 180.364,69.399 178.544 C 70.794 176.725,72.103 175.024,72.309 174.764 C 72.514 174.504,72.595 174.291,72.488 174.291 C 72.380 174.291,70.989 175.992,69.395 178.072 M156.829 184.026 C 154.002 187.471,153.018 188.790,153.936 187.902 C 154.882 186.986,159.632 181.096,159.424 181.096 C 159.319 181.096,158.151 182.415,156.829 184.026 M64.575 184.405 C 63.167 186.035,58.889 191.783,59.248 191.561 C 59.699 191.282,65.533 183.743,65.298 183.743 C 65.214 183.743,64.889 184.041,64.575 184.405 M151.518 190.464 C 150.764 191.446,149.698 192.802,149.149 193.478 C 148.599 194.154,148.236 194.707,148.342 194.707 C 148.653 194.707,153.218 189.008,153.045 188.836 C 152.958 188.749,152.271 189.482,151.518 190.464 M55.732 195.909 C 54.109 198.026,52.971 199.641,53.203 199.498 C 53.434 199.355,54.616 197.929,55.829 196.330 C 58.800 192.412,59.049 192.060,58.852 192.060 C 58.759 192.060,57.355 193.792,55.732 195.909 M146.604 196.511 C 146.036 197.286,145.041 198.559,144.393 199.338 C 143.746 200.118,143.295 200.756,143.391 200.756 C 143.487 200.756,144.621 199.480,145.911 197.921 C 147.201 196.361,148.117 195.089,147.947 195.093 C 147.776 195.098,147.172 195.736,146.604 196.511 M50.789 202.363 C 47.808 206.208,46.831 207.561,47.037 207.561 C 47.144 207.561,48.520 205.860,50.095 203.781 C 51.669 201.701,52.882 200.000,52.789 200.000 C 52.697 200.000,51.797 201.063,50.789 202.363 M141.927 202.363 C 140.316 204.222,139.718 205.033,140.143 204.786 C 140.387 204.643,141.125 203.848,141.781 203.019 C 143.054 201.412,143.159 200.943,141.927 202.363 M137.784 207.467 C 135.439 210.273,134.819 211.189,136.425 209.477 C 138.012 207.784,140.007 205.293,139.775 205.293 C 139.679 205.293,138.783 206.271,137.784 207.467 M43.586 211.815 C 39.759 216.708,39.142 217.545,39.548 217.294 C 40.027 216.998,45.850 209.452,45.599 209.452 C 45.508 209.452,44.602 210.515,43.586 211.815 M133.081 213.233 C 132.211 214.272,131.584 215.123,131.688 215.123 C 131.792 215.123,132.589 214.272,133.459 213.233 C 134.330 212.193,134.957 211.342,134.853 211.342 C 134.749 211.342,133.952 212.193,133.081 213.233 M126.394 221.443 C 120.078 229.191,120.140 229.112,120.365 229.112 C 120.471 229.112,122.804 226.347,125.550 222.968 C 128.295 219.589,130.799 216.526,131.114 216.163 C 131.429 215.799,131.586 215.501,131.462 215.501 C 131.339 215.501,129.059 218.175,126.394 221.443 M36.106 221.550 C 34.531 223.629,33.328 225.331,33.432 225.331 C 33.536 225.331,34.909 223.629,36.484 221.550 C 38.059 219.471,39.262 217.769,39.158 217.769 C 39.054 217.769,37.681 219.471,36.106 221.550 M29.724 229.758 C 28.709 231.124,28.067 232.125,28.297 231.983 C 28.920 231.598,32.230 227.217,31.875 227.247 C 31.707 227.262,30.739 228.391,29.724 229.758 M119.243 230.340 C 117.587 232.250,117.095 232.892,117.287 232.892 C 117.398 232.892,118.117 232.127,118.883 231.191 C 120.303 229.458,120.585 228.793,119.243 230.340 M26.630 233.902 C 26.048 234.666,25.765 235.171,26.001 235.025 C 26.485 234.726,28.122 232.514,27.859 232.514 C 27.765 232.514,27.213 233.139,26.630 233.902 M115.123 235.252 C 114.291 236.295,113.189 237.671,112.673 238.310 C 112.157 238.949,111.922 239.356,112.151 239.215 C 112.755 238.841,116.955 233.651,116.782 233.491 C 116.701 233.417,115.955 234.210,115.123 235.252 M23.623 237.902 C 22.659 239.201,22.406 239.669,23.061 238.941 C 24.510 237.332,25.830 235.539,25.568 235.539 C 25.462 235.539,24.586 236.602,23.623 237.902 M110.926 240.548 C 109.314 242.407,108.716 243.218,109.141 242.971 C 109.385 242.828,110.123 242.033,110.779 241.205 C 112.052 239.597,112.157 239.128,110.926 240.548 M18.096 244.910 C 17.548 245.682,16.555 247.037,15.889 247.921 C 15.224 248.804,14.772 249.527,14.884 249.527 C 14.997 249.527,16.125 248.166,17.391 246.503 C 18.658 244.839,19.558 243.485,19.393 243.493 C 19.228 243.501,18.644 244.138,18.096 244.910 M107.592 244.530 L 106.866 245.558 107.875 244.641 C 108.936 243.678,109.067 243.471,108.601 243.490 C 108.445 243.497,107.991 243.965,107.592 244.530 M105.104 247.637 C 104.233 248.677,103.606 249.527,103.710 249.527 C 103.814 249.527,104.612 248.677,105.482 247.637 C 106.353 246.597,106.980 245.747,106.876 245.747 C 106.772 245.747,105.974 246.597,105.104 247.637 M13.936 250.567 C 12.848 251.880,12.387 252.552,12.574 252.552 C 12.679 252.552,13.219 251.957,13.774 251.229 C 14.804 249.878,14.929 249.368,13.936 250.567 M101.848 251.684 C 101.046 252.662,100.588 253.340,100.829 253.191 C 101.343 252.873,103.738 249.905,103.480 249.905 C 103.384 249.905,102.649 250.706,101.848 251.684 M10.681 254.657 L 9.452 256.301 9.452 289.965 C 9.452 308.481,9.579 323.630,9.735 323.630 C 9.891 323.630,9.975 308.535,9.920 290.087 L 9.822 256.544 11.000 254.903 C 12.548 252.748,12.268 252.533,10.681 254.657 M99.583 254.537 C 97.927 256.447,97.435 257.089,97.627 257.089 C 97.739 257.089,98.457 256.323,99.224 255.388 C 100.644 253.654,100.925 252.989,99.583 254.537 M96.195 258.696 L 95.085 259.924 96.314 258.814 C 97.459 257.779,97.716 257.467,97.424 257.467 C 97.359 257.467,96.806 258.020,96.195 258.696 M90.923 265.123 C 86.057 271.076,86.056 271.078,86.296 271.078 C 86.400 271.078,88.165 269.003,90.218 266.467 C 95.158 260.366,95.355 260.113,95.173 260.113 C 95.088 260.113,93.175 262.368,90.923 265.123 M84.121 273.438 C 83.289 274.481,82.214 275.822,81.731 276.419 C 81.248 277.016,80.939 277.505,81.045 277.505 C 81.325 277.505,85.931 271.814,85.769 271.666 C 85.695 271.598,84.953 272.395,84.121 273.438 M78.962 279.868 C 76.058 283.341,74.423 285.444,74.628 285.444 C 74.737 285.444,75.812 284.228,77.016 282.742 C 78.221 281.256,79.601 279.554,80.084 278.961 C 80.567 278.368,80.885 277.883,80.792 277.883 C 80.698 277.883,79.874 278.776,78.962 279.868 M71.606 288.941 C 69.995 290.800,69.397 291.611,69.821 291.364 C 70.066 291.221,70.803 290.427,71.460 289.598 C 72.733 287.990,72.837 287.521,71.606 288.941 M66.685 294.991 C 61.703 301.042,61.063 301.853,61.461 301.611 C 61.938 301.320,69.657 291.871,69.417 291.871 C 69.327 291.871,68.097 293.275,66.685 294.991 M60.264 302.930 C 58.608 304.840,58.116 305.482,58.308 305.482 C 58.419 305.482,59.137 304.716,59.904 303.781 C 61.324 302.048,61.606 301.383,60.264 302.930 M55.918 308.223 C 53.030 311.632,52.694 312.066,53.147 311.804 C 53.637 311.520,58.351 305.860,58.098 305.860 C 58.000 305.860,57.019 306.923,55.918 308.223 M51.946 313.138 C 50.290 315.048,49.798 315.690,49.990 315.690 C 50.102 315.690,50.820 314.924,51.587 313.989 C 53.007 312.256,53.288 311.590,51.946 313.138 M344.423 315.654 C 343.488 316.638,342.212 317.823,341.588 318.289 C 340.759 318.907,340.697 319.016,341.359 318.693 C 342.479 318.147,345.477 315.413,345.974 314.485 C 346.488 313.525,346.347 313.631,344.423 315.654 M47.858 318.105 C 47.043 319.168,46.764 319.698,47.237 319.282 C 48.213 318.423,49.679 316.461,49.474 316.287 C 49.399 316.223,48.672 317.041,47.858 318.105 M338.374 319.471 C 337.596 319.720,337.562 319.779,338.185 319.805 C 338.601 319.823,339.197 319.672,339.509 319.471 C 340.171 319.043,339.711 319.043,338.374 319.471 M297.476 320.132 C 304.821 320.190,316.730 320.190,323.941 320.132 C 331.151 320.075,325.142 320.028,310.586 320.028 C 296.030 320.028,290.131 320.075,297.476 320.132 M43.629 323.346 C 42.017 325.205,41.420 326.016,41.844 325.769 C 42.089 325.626,42.826 324.831,43.482 324.002 C 44.755 322.395,44.860 321.926,43.629 323.346 M114.868 323.535 C 125.541 323.591,142.894 323.591,153.431 323.535 C 163.969 323.479,155.236 323.433,134.026 323.433 C 112.817 323.433,104.195 323.479,114.868 323.535 M40.583 327.127 C 38.871 329.046,33.224 336.106,33.401 336.106 C 33.506 336.106,35.163 334.192,37.082 331.853 C 39.002 329.513,40.827 327.302,41.139 326.938 C 41.975 325.961,41.470 326.132,40.583 327.127 M29.077 341.304 C 27.410 343.164,26.722 344.045,26.938 344.045 C 27.055 344.045,27.863 343.195,28.733 342.155 C 30.408 340.154,30.654 339.545,29.077 341.304 M24.740 346.597 C 22.395 349.403,21.776 350.319,23.381 348.607 C 24.969 346.914,26.963 344.423,26.732 344.423 C 26.636 344.423,25.739 345.402,24.740 346.597 M20.944 351.323 C 19.288 353.233,18.796 353.875,18.988 353.875 C 19.100 353.875,19.818 353.110,20.585 352.174 C 22.005 350.441,22.286 349.776,20.944 351.323 M17.542 355.482 C 15.930 357.341,15.333 358.152,15.757 357.905 C 16.002 357.762,16.739 356.967,17.395 356.138 C 18.668 354.531,18.773 354.062,17.542 355.482 M14.208 359.464 L 13.482 360.491 14.492 359.575 C 15.552 358.612,15.683 358.404,15.217 358.424 C 15.061 358.431,14.607 358.898,14.208 359.464 M11.664 362.665 C 10.763 363.757,10.328 364.411,10.698 364.120 C 11.472 363.509,13.767 360.681,13.489 360.681 C 13.386 360.681,12.565 361.574,11.664 362.665 " stroke="none" fill="#db9452" fill-rule="evenodd"></path><path id="path3" d="M163.249 13.909 C 161.249 16.552,155.838 23.648,151.225 29.679 C 146.612 35.709,141.876 41.919,140.700 43.478 C 139.525 45.038,138.350 46.569,138.090 46.881 C 137.830 47.193,136.639 48.743,135.443 50.326 C 132.936 53.647,120.153 70.373,117.128 74.291 C 116.004 75.747,113.206 79.405,110.910 82.420 C 105.592 89.403,100.666 95.844,97.566 99.866 C 95.077 103.095,79.438 123.606,74.669 129.896 C 73.214 131.815,71.597 133.934,71.078 134.604 C 70.107 135.855,59.788 149.362,56.238 154.027 C 55.147 155.462,53.567 157.503,52.728 158.564 C 51.889 159.624,48.491 164.064,45.176 168.431 C 41.861 172.798,37.388 178.667,35.236 181.474 C 28.497 190.262,12.723 210.955,11.433 212.700 C 10.755 213.617,10.330 214.357,10.488 214.344 C 10.646 214.332,13.667 210.489,17.202 205.803 C 20.737 201.118,23.945 196.892,24.330 196.413 C 25.751 194.645,43.281 171.669,46.977 166.730 C 49.078 163.922,50.905 161.541,51.038 161.437 C 51.248 161.271,59.181 150.910,67.108 140.446 C 68.563 138.525,73.506 132.041,78.091 126.038 C 82.675 120.035,87.523 113.677,88.863 111.909 C 90.203 110.142,91.395 108.611,91.510 108.507 C 91.626 108.403,96.040 102.618,101.319 95.652 C 106.598 88.686,111.019 82.902,111.142 82.798 C 111.266 82.694,112.893 80.567,114.757 78.072 C 116.622 75.577,118.243 73.450,118.361 73.346 C 118.478 73.242,119.913 71.371,121.550 69.187 C 123.187 67.004,124.623 65.132,124.741 65.028 C 124.860 64.924,126.454 62.831,128.284 60.376 C 130.114 57.922,131.857 55.625,132.157 55.272 C 132.457 54.920,133.936 52.998,135.444 51.002 C 136.952 49.006,141.681 42.796,145.955 37.203 C 150.228 31.609,154.820 25.586,156.160 23.819 C 157.500 22.051,158.692 20.520,158.809 20.416 C 159.467 19.830,167.172 9.390,167.042 9.260 C 166.956 9.174,165.249 11.266,163.249 13.909 M343.289 12.098 C 344.746 12.565,345.524 12.565,344.802 12.098 C 344.490 11.897,343.809 11.746,343.289 11.764 L 342.344 11.796 343.289 12.098 M346.314 12.798 C 346.626 12.981,347.391 13.241,348.015 13.376 C 348.741 13.533,348.945 13.501,348.582 13.289 C 348.270 13.106,347.505 12.846,346.881 12.711 C 346.155 12.554,345.951 12.586,346.314 12.798 M349.716 13.925 C 350.028 14.118,350.709 14.389,351.229 14.528 C 351.886 14.704,352.001 14.674,351.607 14.431 C 351.295 14.238,350.614 13.966,350.095 13.827 C 349.438 13.652,349.322 13.681,349.716 13.925 M356.522 16.779 C 356.522 16.868,357.330 17.412,358.318 17.987 C 359.305 18.562,361.347 19.846,362.854 20.840 C 364.362 21.834,365.592 22.528,365.587 22.382 C 365.570 21.888,356.522 16.295,356.522 16.779 M369.779 26.495 C 373.798 30.458,375.173 31.972,376.964 34.407 C 378.007 35.825,382.231 42.611,382.231 42.870 C 382.231 42.955,382.888 44.446,383.692 46.182 C 384.975 48.953,385.829 51.453,387.160 56.333 C 388.696 61.962,388.655 58.331,388.655 188.658 C 388.655 325.248,388.818 315.602,386.367 323.819 C 383.271 334.199,375.138 344.934,365.731 351.058 C 360.269 354.614,360.751 354.270,361.626 353.989 C 363.902 353.257,373.183 346.133,375.621 343.247 C 383.357 334.086,387.017 326.460,388.485 316.446 C 389.175 311.743,389.305 66.826,388.620 61.591 C 386.780 47.510,377.602 31.358,366.919 23.401 C 366.295 22.936,367.582 24.329,369.779 26.495 M166.730 84.651 L 166.730 117.928 161.893 124.276 C 159.233 127.767,155.448 132.740,153.481 135.326 C 151.515 137.911,148.602 141.739,147.010 143.832 C 145.417 145.925,144.184 147.708,144.269 147.795 C 144.354 147.881,144.480 147.881,144.548 147.795 C 144.617 147.708,148.478 142.618,153.128 136.484 C 157.778 130.350,162.911 123.582,164.534 121.445 L 167.486 117.560 167.486 84.700 C 167.486 63.201,167.355 51.760,167.108 51.607 C 166.857 51.452,166.730 62.562,166.730 84.651 M283.270 188.532 C 283.354 304.978,283.430 319.996,283.932 320.162 C 284.398 320.316,284.415 320.248,284.025 319.776 C 283.647 319.318,283.571 292.705,283.647 188.145 C 283.700 116.064,283.615 57.089,283.459 57.089 C 283.303 57.089,283.218 116.238,283.270 188.532 M29.773 57.750 C 40.222 57.806,57.320 57.806,67.769 57.750 C 78.218 57.695,69.669 57.649,48.771 57.649 C 27.873 57.649,19.324 57.695,29.773 57.750 M143.033 149.055 C 141.859 150.360,141.517 151.154,142.503 150.288 C 143.295 149.592,144.249 148.204,143.936 148.204 C 143.860 148.204,143.454 148.587,143.033 149.055 M128.166 168.484 C 120.992 177.951,114.830 186.065,114.472 186.515 C 114.113 186.966,112.582 188.964,111.069 190.955 C 109.556 192.946,103.554 200.830,97.732 208.475 C 91.909 216.119,85.315 224.783,83.077 227.728 C 80.839 230.672,78.774 233.358,78.489 233.696 C 78.204 234.034,76.705 235.991,75.159 238.044 C 72.985 240.930,52.744 267.559,51.343 269.376 C 51.182 269.584,50.647 270.265,50.152 270.888 C 49.658 271.512,47.834 273.894,46.098 276.181 C 44.362 278.469,41.573 282.138,39.902 284.335 C 38.230 286.532,33.894 292.231,30.265 297.000 C 26.637 301.769,22.882 306.692,21.920 307.940 C 19.936 310.512,14.977 317.028,12.423 320.416 C 11.483 321.664,10.576 322.940,10.408 323.251 C 9.622 324.705,11.766 321.999,19.688 311.531 C 24.331 305.397,28.223 300.293,28.337 300.189 C 28.451 300.085,30.070 297.958,31.935 295.463 C 33.799 292.968,35.418 290.841,35.533 290.737 C 35.648 290.633,37.269 288.507,39.136 286.011 C 41.003 283.516,42.626 281.389,42.743 281.285 C 42.924 281.124,56.079 263.866,67.931 248.242 C 72.442 242.295,75.807 237.878,88.847 220.789 C 103.548 201.524,106.840 197.204,111.176 191.493 C 113.229 188.790,116.403 184.622,118.229 182.231 C 121.663 177.735,133.595 162.075,138.393 155.766 C 139.895 153.790,141.292 151.961,141.497 151.701 C 141.702 151.441,141.721 151.239,141.540 151.251 C 141.358 151.263,135.340 159.018,128.166 168.484 M166.730 202.689 L 166.730 233.129 157.540 244.636 C 152.486 250.965,142.926 262.949,136.297 271.267 C 111.320 302.605,103.342 312.613,99.681 317.202 C 97.607 319.802,95.745 322.183,95.543 322.495 C 95.006 323.325,97.156 321.011,98.544 319.266 C 103.890 312.547,118.625 294.061,119.478 293.006 C 120.065 292.278,124.740 286.408,129.866 279.962 C 134.992 273.516,139.471 267.900,139.820 267.482 C 140.523 266.639,143.133 263.374,157.495 245.369 L 167.297 233.081 167.398 203.050 C 167.465 183.050,167.371 172.891,167.114 172.634 C 166.853 172.373,166.730 182.042,166.730 202.689 M172.686 338.690 C 172.739 347.146,172.827 356.701,172.882 359.924 C 172.937 363.147,173.064 356.370,173.164 344.864 C 173.283 331.154,173.216 323.835,172.968 323.629 C 172.717 323.420,172.622 328.472,172.686 338.690 M359.335 354.802 C 358.627 355.331,358.631 355.342,359.458 355.134 C 359.929 355.015,360.407 354.769,360.520 354.586 C 360.839 354.068,360.148 354.194,359.335 354.802 M355.577 356.413 C 355.161 356.513,354.650 356.768,354.442 356.979 C 353.970 357.459,355.784 356.974,356.314 356.479 C 356.511 356.295,356.596 356.163,356.503 356.188 C 356.409 356.212,355.992 356.313,355.577 356.413 M352.174 357.656 C 351.445 357.969,351.447 357.982,352.246 358.007 C 352.702 358.022,353.180 357.864,353.308 357.656 C 353.584 357.209,353.215 357.209,352.174 357.656 M348.393 358.790 C 348.117 359.237,348.487 359.237,349.527 358.790 C 350.256 358.477,350.254 358.464,349.455 358.439 C 349.000 358.424,348.522 358.582,348.393 358.790 M342.722 359.924 L 341.966 360.249 342.722 360.249 C 343.138 360.249,343.819 360.103,344.234 359.924 L 344.991 359.599 344.234 359.599 C 343.819 359.599,343.138 359.746,342.722 359.924 " stroke="none" fill="#3898d4" fill-rule="evenodd"></path><path id="path4" d="M10.015 33.428 C 10.018 54.585,10.090 57.612,10.586 57.748 C 11.003 57.862,11.029 57.814,10.683 57.570 C 10.319 57.312,10.191 51.836,10.112 33.250 L 10.010 9.263 10.015 33.428 M261.720 10.870 C 275.392 10.925,297.765 10.925,311.437 10.870 C 325.109 10.815,313.922 10.770,286.578 10.770 C 259.234 10.770,248.048 10.815,261.720 10.870 M161.799 57.940 C 161.096 58.823,160.821 59.306,161.186 59.013 C 161.874 58.460,163.494 56.333,163.227 56.333 C 163.144 56.333,162.501 57.056,161.799 57.940 M80.131 66.446 L 78.828 67.864 80.246 66.561 C 81.565 65.348,81.837 65.028,81.549 65.028 C 81.485 65.028,80.847 65.666,80.131 66.446 M154.199 67.769 C 153.588 68.641,153.532 68.842,154.005 68.462 C 154.679 67.921,155.564 66.541,155.238 66.541 C 155.140 66.541,154.673 67.094,154.199 67.769 M77.505 69.376 C 77.016 69.896,76.774 70.316,76.966 70.309 C 77.290 70.298,78.848 68.431,78.533 68.431 C 78.456 68.431,77.993 68.856,77.505 69.376 M75.402 71.928 L 74.291 73.157 75.520 72.046 C 76.665 71.011,76.922 70.699,76.630 70.699 C 76.565 70.699,76.012 71.252,75.402 71.928 M347.921 72.779 C 347.926 73.611,348.003 73.906,348.093 73.436 C 348.184 72.966,348.180 72.285,348.086 71.924 C 347.991 71.562,347.917 71.947,347.921 72.779 M147.990 75.898 C 147.122 77.059,147.086 77.180,147.791 76.564 C 148.612 75.847,149.541 74.480,149.208 74.480 C 149.121 74.480,148.573 75.118,147.990 75.898 M69.131 79.112 C 68.019 80.411,67.412 81.237,67.782 80.946 C 68.584 80.315,71.607 76.749,71.339 76.749 C 71.236 76.749,70.243 77.812,69.131 79.112 M140.642 85.539 C 140.085 86.299,139.994 86.563,140.402 86.231 C 141.022 85.728,141.959 84.310,141.672 84.310 C 141.600 84.310,141.136 84.863,140.642 85.539 M61.781 87.618 C 60.777 88.814,60.350 89.452,60.832 89.036 C 61.793 88.207,64.063 85.444,63.783 85.444 C 63.687 85.444,62.786 86.422,61.781 87.618 M137.761 89.319 C 136.644 90.593,135.992 91.493,136.185 91.493 C 136.280 91.493,136.904 90.813,137.573 89.981 C 138.870 88.366,139.002 87.903,137.761 89.319 M134.381 93.637 C 133.799 94.401,133.515 94.906,133.751 94.760 C 134.235 94.461,135.872 92.250,135.609 92.250 C 135.516 92.250,134.963 92.874,134.381 93.637 M54.820 95.652 C 53.740 96.900,52.940 97.921,53.044 97.921 C 53.148 97.921,54.118 96.900,55.198 95.652 C 56.279 94.405,57.079 93.384,56.975 93.384 C 56.871 93.384,55.901 94.405,54.820 95.652 M50.284 100.945 C 49.203 102.193,48.403 103.214,48.507 103.214 C 48.611 103.214,49.581 102.193,50.662 100.945 C 51.742 99.698,52.542 98.677,52.438 98.677 C 52.334 98.677,51.364 99.698,50.284 100.945 M46.712 105.037 L 45.598 106.427 46.996 105.124 C 48.440 103.778,48.592 103.573,48.110 103.619 C 47.954 103.634,47.325 104.272,46.712 105.037 M124.150 107.089 C 122.981 108.423,122.384 109.263,122.606 109.263 C 122.718 109.263,123.349 108.582,124.008 107.750 C 125.289 106.133,125.387 105.678,124.150 107.089 M42.511 109.919 C 39.311 113.635,38.403 114.834,40.432 112.665 C 42.567 110.384,44.761 107.750,44.527 107.750 C 44.446 107.750,43.538 108.726,42.511 109.919 M120.983 111.153 C 120.539 111.777,120.260 112.287,120.364 112.287 C 120.468 112.287,120.917 111.777,121.361 111.153 C 121.805 110.529,122.084 110.019,121.980 110.019 C 121.876 110.019,121.427 110.529,120.983 111.153 M117.906 115.217 C 116.818 116.530,116.357 117.202,116.544 117.202 C 116.649 117.202,117.189 116.607,117.744 115.879 C 118.774 114.528,118.899 114.019,117.906 115.217 M36.111 117.297 C 34.041 119.685,33.740 120.100,34.513 119.501 C 35.239 118.938,37.597 116.068,37.334 116.068 C 37.247 116.068,36.697 116.621,36.111 117.297 M29.655 124.858 L 28.544 126.087 29.773 124.977 C 30.449 124.366,31.002 123.813,31.002 123.748 C 31.002 123.456,30.690 123.713,29.655 124.858 M27.052 127.721 L 25.938 129.112 27.336 127.809 C 28.780 126.462,28.932 126.257,28.450 126.303 C 28.294 126.318,27.665 126.956,27.052 127.721 M107.372 128.922 C 106.928 129.546,106.650 130.057,106.754 130.057 C 106.858 130.057,107.306 129.546,107.750 128.922 C 108.195 128.299,108.473 127.788,108.369 127.788 C 108.265 127.788,107.817 128.299,107.372 128.922 M22.471 133.176 L 21.361 134.405 22.590 133.294 C 23.266 132.683,23.819 132.130,23.819 132.065 C 23.819 131.773,23.507 132.030,22.471 133.176 M103.378 134.121 C 102.510 135.282,102.474 135.403,103.179 134.787 C 103.999 134.070,104.929 132.703,104.595 132.703 C 104.508 132.703,103.961 133.341,103.378 134.121 M19.876 136.070 L 18.769 137.429 20.046 136.212 C 20.748 135.543,21.246 134.932,21.153 134.854 C 21.059 134.775,20.485 135.323,19.876 136.070 M16.257 140.265 C 15.176 141.512,14.377 142.533,14.481 142.533 C 14.585 142.533,15.554 141.512,16.635 140.265 C 17.716 139.017,18.515 137.996,18.411 137.996 C 18.307 137.996,17.338 139.017,16.257 140.265 M96.196 143.543 C 95.613 144.306,95.330 144.812,95.566 144.666 C 96.050 144.367,97.687 142.155,97.424 142.155 C 97.331 142.155,96.778 142.780,96.196 143.543 M10.011 180.907 C 10.011 199.206,10.057 206.747,10.113 197.666 C 10.170 188.584,10.170 173.612,10.113 164.395 C 10.057 155.178,10.011 162.609,10.011 180.907 M89.927 151.701 C 89.316 152.573,89.259 152.774,89.733 152.394 C 90.407 151.853,91.292 150.473,90.965 150.473 C 90.868 150.473,90.401 151.026,89.927 151.701 M87.335 155.104 C 85.762 157.109,85.355 157.811,86.503 156.540 C 87.596 155.329,88.948 153.497,88.747 153.497 C 88.664 153.497,88.028 154.220,87.335 155.104 M73.488 173.251 C 72.372 174.525,71.720 175.425,71.913 175.425 C 72.008 175.425,72.632 174.745,73.300 173.913 C 74.598 172.298,74.730 171.835,73.488 173.251 M162.717 177.204 C 161.916 178.182,161.457 178.860,161.699 178.711 C 162.213 178.393,164.607 175.425,164.350 175.425 C 164.253 175.425,163.519 176.226,162.717 177.204 M66.541 182.231 C 65.882 183.062,65.428 183.743,65.532 183.743 C 65.636 183.743,66.260 183.062,66.919 182.231 C 67.577 181.399,68.031 180.718,67.927 180.718 C 67.823 180.718,67.199 181.399,66.541 182.231 M60.280 190.454 C 58.274 192.962,58.107 193.195,58.310 193.195 C 58.409 193.195,59.292 192.174,60.272 190.926 C 61.252 189.679,61.978 188.658,61.885 188.658 C 61.793 188.658,61.070 189.466,60.280 190.454 M56.711 195.085 C 56.267 195.709,55.988 196.219,56.092 196.219 C 56.196 196.219,56.645 195.709,57.089 195.085 C 57.533 194.461,57.811 193.951,57.707 193.951 C 57.603 193.951,57.155 194.461,56.711 195.085 M52.930 200.000 C 52.271 200.832,51.817 201.512,51.921 201.512 C 52.025 201.512,52.649 200.832,53.308 200.000 C 53.967 199.168,54.421 198.488,54.317 198.488 C 54.213 198.488,53.589 199.168,52.930 200.000 M45.367 209.924 C 44.811 210.685,44.720 210.949,45.128 210.617 C 45.748 210.114,46.685 208.696,46.398 208.696 C 46.326 208.696,45.862 209.249,45.367 209.924 M134.430 212.004 C 133.612 213.048,133.547 213.223,134.181 212.670 C 134.939 212.007,135.939 210.586,135.647 210.586 C 135.587 210.586,135.040 211.224,134.430 212.004 M43.100 212.854 C 42.656 213.478,42.378 213.989,42.482 213.989 C 42.586 213.989,43.034 213.478,43.478 212.854 C 43.922 212.231,44.201 211.720,44.097 211.720 C 43.993 211.720,43.544 212.231,43.100 212.854 M132.325 214.556 C 131.837 215.076,131.594 215.496,131.787 215.489 C 132.110 215.478,133.668 213.611,133.354 213.611 C 133.276 213.611,132.814 214.036,132.325 214.556 M39.107 218.023 C 38.524 218.786,38.241 219.292,38.477 219.146 C 38.961 218.847,40.598 216.635,40.335 216.635 C 40.242 216.635,39.689 217.260,39.107 218.023 M32.891 226.181 C 32.334 226.942,32.243 227.206,32.652 226.874 C 33.272 226.371,34.209 224.953,33.922 224.953 C 33.850 224.953,33.386 225.506,32.891 226.181 M28.383 232.033 C 27.744 232.808,27.221 233.612,27.221 233.819 C 27.221 234.025,27.503 233.774,27.847 233.260 C 28.192 232.746,28.817 231.942,29.236 231.474 C 29.656 231.007,29.897 230.624,29.772 230.624 C 29.647 230.624,29.022 231.258,28.383 232.033 M25.709 235.539 C 25.265 236.163,24.986 236.673,25.090 236.673 C 25.194 236.673,25.643 236.163,26.087 235.539 C 26.531 234.915,26.810 234.405,26.706 234.405 C 26.602 234.405,26.153 234.915,25.709 235.539 M21.928 240.454 C 21.269 241.285,20.815 241.966,20.919 241.966 C 21.023 241.966,21.647 241.285,22.306 240.454 C 22.965 239.622,23.419 238.941,23.315 238.941 C 23.211 238.941,22.587 239.622,21.928 240.454 M108.482 243.951 C 107.571 245.043,107.126 245.697,107.492 245.405 C 108.227 244.818,110.556 241.966,110.299 241.966 C 110.210 241.966,109.392 242.859,108.482 243.951 M103.378 250.189 C 102.510 251.350,102.474 251.471,103.179 250.855 C 103.999 250.138,104.929 248.771,104.595 248.771 C 104.508 248.771,103.961 249.409,103.378 250.189 M12.098 253.308 C 11.654 253.932,11.376 254.442,11.480 254.442 C 11.584 254.442,12.032 253.932,12.476 253.308 C 12.921 252.684,13.199 252.174,13.095 252.174 C 12.991 252.174,12.542 252.684,12.098 253.308 M10.011 289.792 C 10.011 308.299,10.057 315.814,10.113 306.493 C 10.170 297.172,10.170 282.031,10.113 272.845 C 10.057 263.659,10.011 271.285,10.011 289.792 M96.181 259.074 C 94.569 260.933,93.972 261.744,94.396 261.496 C 94.641 261.354,95.378 260.559,96.034 259.730 C 97.307 258.123,97.412 257.653,96.181 259.074 M90.505 266.050 C 89.704 267.028,89.246 267.707,89.487 267.557 C 90.001 267.240,92.396 264.272,92.138 264.272 C 92.041 264.272,91.307 265.072,90.505 266.050 M81.814 276.843 C 80.158 278.753,79.666 279.395,79.858 279.395 C 79.969 279.395,80.687 278.629,81.454 277.694 C 82.874 275.961,83.156 275.296,81.814 276.843 M78.411 281.002 C 76.755 282.912,76.263 283.554,76.455 283.554 C 76.567 283.554,77.285 282.788,78.052 281.853 C 79.472 280.120,79.753 279.454,78.411 281.002 M73.496 287.051 C 71.840 288.961,71.348 289.603,71.540 289.603 C 71.652 289.603,72.370 288.837,73.137 287.902 C 74.557 286.169,74.838 285.504,73.496 287.051 M69.333 292.137 C 68.532 293.115,68.074 293.794,68.315 293.644 C 68.829 293.327,71.224 290.359,70.966 290.359 C 70.869 290.359,70.135 291.159,69.333 292.137 M64.418 298.187 C 63.617 299.165,63.159 299.843,63.400 299.694 C 63.914 299.376,66.309 296.408,66.051 296.408 C 65.954 296.408,65.220 297.209,64.418 298.187 M59.341 304.442 C 58.639 305.326,58.363 305.809,58.728 305.516 C 59.416 304.963,61.037 302.836,60.770 302.836 C 60.686 302.836,60.043 303.559,59.341 304.442 M50.284 315.501 C 49.795 316.021,49.553 316.441,49.745 316.434 C 50.068 316.423,51.626 314.556,51.312 314.556 C 51.235 314.556,50.772 314.981,50.284 315.501 M344.403 316.352 L 343.100 317.769 344.518 316.466 C 345.838 315.254,346.110 314.934,345.821 314.934 C 345.758 314.934,345.120 315.572,344.403 316.352 M45.519 321.456 C 43.863 323.366,43.371 324.008,43.563 324.008 C 43.674 324.008,44.393 323.242,45.159 322.306 C 46.579 320.573,46.861 319.908,45.519 321.456 M41.588 326.276 C 40.929 327.108,40.475 327.788,40.579 327.788 C 40.683 327.788,41.307 327.108,41.966 326.276 C 42.625 325.444,43.079 324.764,42.975 324.764 C 42.871 324.764,42.247 325.444,41.588 326.276 M34.026 335.539 C 33.538 336.059,33.296 336.479,33.488 336.472 C 33.811 336.461,35.369 334.594,35.055 334.594 C 34.978 334.594,34.515 335.019,34.026 335.539 M14.517 359.641 C 12.861 361.551,12.369 362.193,12.561 362.193 C 12.672 362.193,13.391 361.427,14.157 360.491 C 15.578 358.758,15.859 358.093,14.517 359.641 M10.965 363.893 C 10.478 364.412,10.163 364.920,10.265 365.022 C 10.367 365.124,10.826 364.700,11.286 364.079 C 12.303 362.702,12.161 362.620,10.965 363.893 " stroke="none" fill="#9e4208" fill-rule="evenodd"></path></g></svg>